# xmcd CD database file
#
# Track frame offsets:
#	150
#	21909
#	48682
#	77561
#	99704
#	118834
#	142741
#	163576
#	182449
#	211475
#	225883
#
# Disc length: 3229 seconds
#
# Revision: 1
# Processed by: cddbd v1.5.2PL0 Copyright (c) Steve Scherf et al.
# Submitted via: CDex 1.70beta2
#
DISCID=880c9b0b
DTITLE=Dave Hole - Rough Diamond
DYEAR=2007
DGENRE=Blues
TTITLE0=Rough Diamond Child
TTITLE1=White Trash Girl
TTITLE2=Something Inside Of Me
TTITLE3=Can't Stop Loving You
TTITLE4=Vintage Wine
TTITLE5=Yours For A Song
TTITLE6=Since I Met You Baby
TTITLE7=I'll Get To You
TTITLE8=King Bee
TTITLE9=Think It Over
TTITLE10=Rambling On My Mind
EXTD=YEAR: 2007
EXTT0=
EXTT1=
EXTT2=
EXTT3=
EXTT4=
EXTT5=
EXTT6=
EXTT7=
EXTT8=
EXTT9=
EXTT10=
PLAYORDER=
